<svg xmlns="http://www.w3.org/2000/svg" viewBox="632.5 2816.5 25 25">
  <defs>
    <style>
      .cls-1 {
        opacity: 0.5;
      }

      .cls-2 {
        fill: #fff;
      }
    </style>
  </defs>
  <g id="LinkedIn" class="cls-1" transform="translate(632.5 2816.5)">
    <path id="Path_185" data-name="Path 185" class="cls-2" d="M23.75,1.042a.224.224,0,0,1,.208.208v22.5a.224.224,0,0,1-.208.208H1.25a.224.224,0,0,1-.208-.208V1.25a.224.224,0,0,1,.208-.208h22.5M23.75,0H1.25A1.245,1.245,0,0,0,0,1.25v22.5A1.245,1.245,0,0,0,1.25,25h22.5A1.245,1.245,0,0,0,25,23.75V1.25A1.245,1.245,0,0,0,23.75,0Z"/>
    <g id="Group_89" data-name="Group 89" transform="translate(4.687 5.243)">
      <path id="Path_186" data-name="Path 186" class="cls-2" d="M29.535,28h3.09v1.6h.035A3.448,3.448,0,0,1,35.715,28c3.264,0,3.854,2.014,3.854,4.653v5.382H36.34V33.278c0-1.146-.035-2.6-1.667-2.6-1.667,0-1.944,1.25-1.944,2.5v4.861H29.5V28Z" transform="translate(-23.944 -23.521)"/>
      <path id="Path_187" data-name="Path 187" class="cls-2" d="M13.5,28h3.333V38.035H13.5Z" transform="translate(-13.5 -23.521)"/>
      <path id="Path_188" data-name="Path 188" class="cls-2" d="M16.833,16.767a1.667,1.667,0,0,1-1.667,1.667,1.667,1.667,0,1,1,1.667-1.667Z" transform="translate(-13.5 -15.1)"/>
    </g>
  </g>
</svg>
