<svg xmlns="http://www.w3.org/2000/svg" viewBox="497.5 2816.5 25 25">
  <defs>
    <style>
      .cls-1 {
        opacity: 0.5;
      }

      .cls-2 {
        fill: #fff;
      }
    </style>
  </defs>
  <g id="Group_42" data-name="Group 42" class="cls-1" transform="translate(0 715)">
    <path id="Path_177" data-name="Path 177" class="cls-2" d="M23.75,1.042a.224.224,0,0,1,.208.208v22.5a.224.224,0,0,1-.208.208H1.25a.224.224,0,0,1-.208-.208V1.25a.224.224,0,0,1,.208-.208h22.5M23.75,0H1.25A1.245,1.245,0,0,0,0,1.25v22.5A1.245,1.245,0,0,0,1.25,25h22.5A1.245,1.245,0,0,0,25,23.75V1.25A1.245,1.245,0,0,0,23.75,0Z" transform="translate(497.5 2101.5)"/>
    <g id="Group_85" data-name="Group 85" transform="translate(502.188 2106.188)">
      <path id="Path_178" data-name="Path 178" class="cls-2" d="M21.313,14.889c2.083,0,2.326,0,3.16.035a4.394,4.394,0,0,1,1.458.278,2.543,2.543,0,0,1,.9.59,2.271,2.271,0,0,1,.59.9,4.394,4.394,0,0,1,.278,1.458c.035.833.035,1.076.035,3.16s0,2.326-.035,3.16a4.394,4.394,0,0,1-.278,1.458,2.543,2.543,0,0,1-.59.9,2.271,2.271,0,0,1-.9.59,4.394,4.394,0,0,1-1.458.278c-.833.035-1.076.035-3.16.035s-2.326,0-3.16-.035a4.394,4.394,0,0,1-1.458-.278,2.543,2.543,0,0,1-.9-.59,2.271,2.271,0,0,1-.59-.9,4.394,4.394,0,0,1-.278-1.458c-.035-.833-.035-1.076-.035-3.16s0-2.326.035-3.16a4.394,4.394,0,0,1,.278-1.458,2.543,2.543,0,0,1,.59-.9,2.271,2.271,0,0,1,.9-.59,4.394,4.394,0,0,1,1.458-.278C18.986,14.924,19.229,14.889,21.313,14.889Zm0-1.389c-2.118,0-2.4,0-3.229.035a6.481,6.481,0,0,0-1.91.347,3.826,3.826,0,0,0-1.389.9,3.558,3.558,0,0,0-.9,1.389,5.359,5.359,0,0,0-.347,1.91c-.035.833-.035,1.111-.035,3.229s0,2.4.035,3.229a6.481,6.481,0,0,0,.347,1.91,3.826,3.826,0,0,0,.9,1.389,4,4,0,0,0,1.389.9,5.359,5.359,0,0,0,1.91.347c.833.035,1.111.035,3.229.035s2.4,0,3.229-.035a6.481,6.481,0,0,0,1.91-.347,3.826,3.826,0,0,0,1.389-.9,4,4,0,0,0,.9-1.389,5.359,5.359,0,0,0,.347-1.91c.035-.833.035-1.111.035-3.229s0-2.4-.035-3.229a6.481,6.481,0,0,0-.347-1.91,3.558,3.558,0,0,0-.9-1.389,4,4,0,0,0-1.389-.9,5.359,5.359,0,0,0-1.91-.347c-.833-.035-1.111-.035-3.229-.035Z" transform="translate(-13.5 -13.5)"/>
      <path id="Path_179" data-name="Path 179" class="cls-2" d="M28.428,24.4a4.028,4.028,0,1,0,4.028,4.028A4.031,4.031,0,0,0,28.428,24.4Zm0,6.632a2.6,2.6,0,1,1,2.6-2.6,2.623,2.623,0,0,1-2.6,2.6Z" transform="translate(-20.615 -20.615)"/>
      <path id="Path_180" data-name="Path 180" class="cls-2" d="M47.175,22.237a.938.938,0,1,1-.937-.937A.934.934,0,0,1,47.175,22.237Z" transform="translate(-34.258 -18.592)"/>
    </g>
  </g>
</svg>
