<svg xmlns="http://www.w3.org/2000/svg" viewBox="587.5 2816.5 25 25">
  <defs>
    <style>
      .cls-1 {
        opacity: 0.5;
      }

      .cls-2 {
        fill: #999;
      }
    </style>
  </defs>
  <g id="Facebook" class="cls-1" transform="translate(587.5 2816.5)">
    <path id="Path_183" data-name="Path 183" class="cls-2" d="M23.75,1.042a.224.224,0,0,1,.208.208v22.5a.224.224,0,0,1-.208.208H1.25a.224.224,0,0,1-.208-.208V1.25a.224.224,0,0,1,.208-.208h22.5M23.75,0H1.25A1.245,1.245,0,0,0,0,1.25v22.5A1.245,1.245,0,0,0,1.25,25h22.5A1.245,1.245,0,0,0,25,23.75V1.25A1.245,1.245,0,0,0,23.75,0Z"/>
    <path id="Path_184" data-name="Path 184" class="cls-2" d="M30.147,16.417h2.431V13.5H30.147a3.408,3.408,0,0,0-3.4,3.4v1.458H24.8v2.951h1.944v7.813h2.917V21.313h2.431l.486-2.917H29.661V16.938A.529.529,0,0,1,30.147,16.417Z" transform="translate(-16.189 -8.813)"/>
  </g>
</svg>
