<svg xmlns="http://www.w3.org/2000/svg" viewBox="542.5 2816.5 25 25">
  <defs>
    <style>
      .cls-1 {
        opacity: 0.5;
      }

      .cls-2 {
        fill: #fff;
      }
    </style>
  </defs>
  <g id="Twitter" class="cls-1" transform="translate(542.5 2816.5)">
    <path id="Path_181" data-name="Path 181" class="cls-2" d="M23.75,1.042a.224.224,0,0,1,.208.208v22.5a.224.224,0,0,1-.208.208H1.25a.224.224,0,0,1-.208-.208V1.25a.224.224,0,0,1,.208-.208h22.5M23.75,0H1.25A1.245,1.245,0,0,0,0,1.25v22.5A1.245,1.245,0,0,0,1.25,25h22.5A1.245,1.245,0,0,0,25,23.75V1.25A1.245,1.245,0,0,0,23.75,0Z"/>
    <path id="Path_182" data-name="Path 182" class="cls-2" d="M29.19,19.128a6.541,6.541,0,0,1-1.84.486,3.275,3.275,0,0,0,1.424-1.771,6.082,6.082,0,0,1-2.049.764A3.193,3.193,0,0,0,21.2,20.794a5.18,5.18,0,0,0,.069.729,9.136,9.136,0,0,1-6.6-3.333,3.238,3.238,0,0,0,1.007,4.271,3.081,3.081,0,0,1-1.458-.417v.035a3.239,3.239,0,0,0,2.569,3.16,3.424,3.424,0,0,1-.833.1,3.058,3.058,0,0,1-.59-.069A3.214,3.214,0,0,0,18.357,27.5a6.4,6.4,0,0,1-3.993,1.389,5.626,5.626,0,0,1-.764-.035,9.158,9.158,0,0,0,14.063-7.708v-.417a5.618,5.618,0,0,0,1.528-1.6Z" transform="translate(-8.878 -11.489)"/>
  </g>
</svg>
