<svg xmlns="http://www.w3.org/2000/svg" viewBox="677.5 2816.5 25 25">
  <defs>
    <style>
      .cls-1 {
        opacity: 0.5;
      }

      .cls-2 {
        fill: #fff;
      }
    </style>
  </defs>
  <g id="YouTube" class="cls-1" transform="translate(677.5 2816.5)">
    <path id="Path_189" data-name="Path 189" class="cls-2" d="M23.75,1.042a.224.224,0,0,1,.208.208v22.5a.224.224,0,0,1-.208.208H1.25a.224.224,0,0,1-.208-.208V1.25a.224.224,0,0,1,.208-.208h22.5M23.75,0H1.25A1.245,1.245,0,0,0,0,1.25v22.5A1.245,1.245,0,0,0,1.25,25h22.5A1.245,1.245,0,0,0,25,23.75V1.25A1.245,1.245,0,0,0,23.75,0Z"/>
    <path id="Path_190" data-name="Path 190" class="cls-2" d="M29.017,22.561A3.269,3.269,0,0,0,28.392,21a2.188,2.188,0,0,0-1.562-.66c-2.188-.139-5.451-.139-5.451-.139h0s-3.264,0-5.451.174a2.188,2.188,0,0,0-1.562.66,3.269,3.269,0,0,0-.625,1.563s-.139,1.25-.139,2.535v1.181c0,1.25.139,2.535.139,2.535a3.269,3.269,0,0,0,.625,1.563,2.663,2.663,0,0,0,1.736.66c1.25.1,5.313.139,5.313.139s3.3,0,5.486-.174a2.188,2.188,0,0,0,1.563-.66,3.269,3.269,0,0,0,.625-1.562s.139-1.25.139-2.535V25.1c-.035-1.25-.208-2.535-.208-2.535ZM19.746,27.7V23.325l4.236,2.188L19.746,27.7Z" transform="translate(-8.878 -13.186)"/>
  </g>
</svg>
