<svg xmlns="http://www.w3.org/2000/svg" viewBox="1500 562 20 22.188">
  <defs>
    <style>
      .cls-1 {
        fill: #999;
      }
    </style>
  </defs>
  <path id="Path_226" data-name="Path 226" class="cls-1" d="M17.76,20V7.76H2.24V20Zm0-17.812A2.291,2.291,0,0,1,20,4.427V20a2.246,2.246,0,0,1-2.24,2.188H2.24A2.212,2.212,0,0,1,0,20V4.427a2.256,2.256,0,0,1,2.24-2.24H3.333V0h2.24V2.188h8.854V0h2.24V2.188ZM15.573,10v2.188h-2.24V10Zm-4.479,0v2.188H8.906V10ZM6.667,10v2.188H4.427V10Z" transform="translate(1500 562)"/>
</svg>
