<svg xmlns="http://www.w3.org/2000/svg" viewBox="1341.5 702.5 19 17.075">
  <defs>
    <style>
      .cls-1 {
        fill: none;
        stroke: #ccc;
      }
    </style>
  </defs>
  <path id="Path_235" data-name="Path 235" class="cls-1" d="M18,5.786a.64.64,0,0,1-.193.45l-5.143,5.143a.636.636,0,0,1-1.093-.45V8.357H9.321c-4.331,0-7.172.836-7.172,5.625,0,.41.02.824.048,1.238.008.161.048.342.048.5a.321.321,0,0,1-.6.185,4.778,4.778,0,0,1-.37-.763A12.849,12.849,0,0,1,0,10.607,9.112,9.112,0,0,1,.53,7.264c1.4-3.467,5.5-4.05,8.791-4.05h2.25V.643a.636.636,0,0,1,1.093-.45l5.143,5.143A.64.64,0,0,1,18,5.786Z" transform="translate(1342 703)"/>
</svg>
