<svg xmlns="http://www.w3.org/2000/svg" viewBox="563 4610 75 75">
  <defs>
    <style>
      .cls-1 {
        opacity: 0.2;
      }
    </style>
  </defs>
  <g id="One_domain_strategy" data-name="One domain strategy" class="cls-1" transform="translate(563 4610)">
    <path id="Path_107" data-name="Path 107" d="M46.125,17v8.971l-5.312,5.32a14.2,14.2,0,0,0-8.75-3.129A14.03,14.03,0,1,0,46.125,42.142,13.64,13.64,0,0,0,43,33.38l5.313-5.32h8.958l16.979-17H63.1V0ZM32.063,53.095A10.953,10.953,0,1,1,38.625,33.38l-4.479,4.485a4.3,4.3,0,0,0-1.979-.522,4.694,4.694,0,1,0,4.687,4.694,6.107,6.107,0,0,0-.417-1.982l4.479-4.485a10.956,10.956,0,0,1-8.854,17.524ZM49.25,18.255,59.979,7.51V12L49.25,22.74Zm6.667,6.676H51.438L62.167,14.186h4.479Z" transform="translate(0.75)"/>
    <path id="Path_108" data-name="Path 108" d="M32.438,21.029a19.55,19.55,0,0,1,10.938,3.234V20.612A22.665,22.665,0,0,0,32.438,17.9,23.47,23.47,0,1,0,55.875,41.37a22.747,22.747,0,0,0-2.708-10.953H49.521a20.286,20.286,0,1,1-17.083-9.388Z" transform="translate(0.375 0.772)"/>
    <path id="Path_109" data-name="Path 109" d="M60.208,29.967l-.1.1A29.476,29.476,0,1,1,44.583,14.424l.1-.1,2.188-2.191A31.927,31.927,0,0,0,32.813,9,32.806,32.806,0,1,0,65.625,41.754,33.564,33.564,0,0,0,62.5,27.672Z" transform="translate(0 0.388)"/>
  </g>
</svg>
