<svg xmlns="http://www.w3.org/2000/svg" viewBox="1173 5832.84 13.9 18">
  <defs>
    <style>
      .cls-1 {
        opacity: 0.5;
      }

      .cls-2 {
        fill: #95c841;
      }
    </style>
  </defs>
  <g id="Group_186" data-name="Group 186" class="cls-1" transform="translate(1173 5832.84)">
    <path id="Path_191" data-name="Path 191" class="cls-2" d="M9.7,6.5a3.245,3.245,0,1,1-2.25.95A3.181,3.181,0,0,1,9.7,6.5m0-1a4.2,4.2,0,1,0,4.2,4.2A4.162,4.162,0,0,0,9.7,5.5Z" transform="translate(-2.75 -2.75)"/>
    <path id="Path_192" data-name="Path 192" d="M6.95,1.5A5.463,5.463,0,0,1,12.4,6.95c0,5.1-3.75,8.2-5.4,9.25C5.35,15,1.5,11.7,1.5,6.95A5.463,5.463,0,0,1,6.95,1.5m0-1.5A6.935,6.935,0,0,0,0,6.95C0,13.85,6.95,18,6.95,18S13.9,14.35,13.9,6.95A6.935,6.935,0,0,0,6.95,0Z"/>
    <path id="Path_193" data-name="Path 193" d="M9.7,6.5a3.245,3.245,0,1,1-2.25.95A3.181,3.181,0,0,1,9.7,6.5m0-1a4.2,4.2,0,1,0,4.2,4.2A4.162,4.162,0,0,0,9.7,5.5Z" transform="translate(-2.75 -2.75)"/>
  </g>
</svg>
