<svg xmlns="http://www.w3.org/2000/svg" viewBox="150 44 306.699 31.44">
  <defs>
    <style>
      .cls-1 {
        fill: #ccc;
      }
    </style>
  </defs>
  <g id="Group_117" data-name="Group 117" transform="translate(150 44)">
    <path id="Path_194" data-name="Path 194" class="cls-1" d="M0,.7H8.17V11.8H18.645V.7h8.17V30.029h-8.17v-11.1H8.17v11.1H0Z" transform="translate(0 0.766)"/>
    <path id="Path_195" data-name="Path 195" class="cls-1" d="M14.6,15.641h0C14.6,9.147,19.837,3.7,27.17,3.7s12.57,5.237,12.57,11.732h0c0,6.494-5.237,11.941-12.57,11.941S14.6,22.135,14.6,15.641Zm17.178,0h0A4.976,4.976,0,0,0,26.96,10.4a4.79,4.79,0,0,0-4.818,5.028h0a4.92,4.92,0,0,0,4.818,5.028C29.893,20.669,31.778,18.365,31.778,15.641Z" transform="translate(15.986 4.051)"/>
    <path id="Path_196" data-name="Path 196" class="cls-1" d="M28,18.774V3.9h7.961V16.26c0,2.514,1.257,3.771,3.142,3.771s3.352-1.257,3.352-3.771V3.9h7.961V26.525H42.665V23.383a8.271,8.271,0,0,1-6.7,3.561C30.933,27.154,28,24.011,28,18.774Z" transform="translate(30.658 4.27)"/>
    <path id="Path_197" data-name="Path 197" class="cls-1" d="M40,24.021,42.933,19.2a14.7,14.7,0,0,0,7.751,2.514c1.466,0,2.095-.419,2.095-1.257h0c0-.838-1.257-1.257-3.561-1.885-4.4-1.257-7.961-2.723-7.961-7.332h0c0-4.818,3.771-7.542,9.008-7.542a18.319,18.319,0,0,1,9.427,2.723l-2.933,5.028a15.4,15.4,0,0,0-6.7-2.095c-1.257,0-1.885.419-1.885,1.047h0c0,.838,1.257,1.257,3.771,2.095,4.4,1.257,7.961,2.723,7.961,7.123h0c0,5.028-3.771,7.542-9.218,7.542A16.452,16.452,0,0,1,40,24.021Z" transform="translate(43.797 4.051)"/>
    <path id="Path_198" data-name="Path 198" class="cls-1" d="M50.6,15.641h0C50.6,8.937,55.418,3.7,62.122,3.7c7.751,0,11.522,5.656,11.522,12.36v1.676H58.561a4.7,4.7,0,0,0,4.818,3.771,6.6,6.6,0,0,0,5.028-2.3l4.4,3.561a11.756,11.756,0,0,1-9.846,4.609C55.628,27.373,50.6,22.554,50.6,15.641Zm15.5-2.095c-.209-2.514-1.676-4.19-3.98-4.19-2.095,0-3.561,1.676-3.98,4.19Z" transform="translate(55.404 4.051)"/>
    <path id="Path_199" data-name="Path 199" class="cls-1" d="M62.4,24.021,65.333,19.2a14.7,14.7,0,0,0,7.751,2.514c1.466,0,2.095-.419,2.095-1.257h0c0-.838-1.257-1.257-3.561-1.885-4.4-1.257-7.961-2.723-7.961-7.332h0c0-4.818,3.771-7.542,9.008-7.542a18.319,18.319,0,0,1,9.427,2.723l-2.723,5.028a15.4,15.4,0,0,0-6.7-2.095c-1.257,0-1.885.419-1.885,1.047h0c0,.838,1.257,1.257,3.771,2.095,4.4,1.257,7.961,2.723,7.961,7.123h0c0,5.028-3.771,7.542-9.218,7.542A16.679,16.679,0,0,1,62.4,24.021Z" transform="translate(68.324 4.051)"/>
    <path id="Path_200" data-name="Path 200" class="cls-1" d="M73.8,15.39h0a4.164,4.164,0,0,1,3.98-4.19,3.978,3.978,0,0,1,3.98,3.98h0a3.978,3.978,0,0,1-3.98,3.98A3.687,3.687,0,0,1,73.8,15.39Z" transform="translate(80.806 12.263)"/>
    <path id="Path_201" data-name="Path 201" class="cls-1" d="M81.723,13.827H79V8.589h2.723V7.123c0-2.514.628-4.19,1.885-5.447A6.9,6.9,0,0,1,88.637,0a13.54,13.54,0,0,1,4.609.628V5.866a6.691,6.691,0,0,0-2.933-.628c-1.466,0-2.3.838-2.3,2.514v.838h5.237v5.237H88.218V30.8H81.933V13.827Z" transform="translate(86.5)"/>
    <path id="Path_202" data-name="Path 202" class="cls-1" d="M86.7,15.532h0A11.81,11.81,0,0,1,98.851,3.8C105.764,3.8,111,9.037,111,15.322h0A11.81,11.81,0,0,1,98.851,27.054,11.516,11.516,0,0,1,86.7,15.532Zm18.016,0h0c0-3.352-2.3-6.285-5.866-6.285a5.778,5.778,0,0,0-5.866,6.075h0c0,3.352,2.3,6.285,5.866,6.285C102.622,21.816,104.716,18.884,104.716,15.532Z" transform="translate(94.931 4.161)"/>
    <path id="Path_203" data-name="Path 203" class="cls-1" d="M100.209,4.219h6.285V8.828c1.257-3.142,3.352-5.028,7.123-5.028v6.7H113.2c-4.19,0-6.913,2.514-6.913,7.961v8.38H100V4.219Z" transform="translate(109.494 4.161)"/>
    <path id="Path_204" data-name="Path 204" class="cls-1" d="M107.7,23.483l2.723-4.19c2.514,1.676,5.028,2.723,7.123,2.723,1.885,0,2.723-.628,2.723-1.676h0c0-1.466-2.095-1.885-4.609-2.514-3.142-.838-6.7-2.3-6.7-6.7h0c0-4.609,3.771-7.123,8.17-7.123a17.016,17.016,0,0,1,8.38,2.514l-2.514,4.19a14,14,0,0,0-6.075-2.095c-1.466,0-2.3.628-2.3,1.466h0c0,1.257,2.095,1.885,4.609,2.723,3.142,1.047,6.7,2.514,6.7,6.7h0c0,5.028-3.771,7.332-8.589,7.332A15.851,15.851,0,0,1,107.7,23.483Z" transform="translate(117.925 4.38)"/>
    <path id="Path_205" data-name="Path 205" class="cls-1" d="M117.9,20.241h0c0-5.028,3.771-7.332,9.008-7.332a18.6,18.6,0,0,1,5.447.838v-.209c0-2.723-1.676-4.19-4.818-4.19a15.306,15.306,0,0,0-6.285,1.257l-1.676-4.818a20.318,20.318,0,0,1,8.8-1.885q5.342,0,7.542,2.514a9.856,9.856,0,0,1,2.514,7.123V26.525h-6.075V24.011a8.768,8.768,0,0,1-6.7,2.933C121.461,26.944,117.9,24.64,117.9,20.241Zm14.665-1.466V17.727a11.166,11.166,0,0,0-3.98-.838c-2.723,0-4.4,1.047-4.4,3.142h0c0,1.676,1.466,2.723,3.561,2.723C130.47,22.545,132.565,21.078,132.565,18.774Z" transform="translate(129.093 4.27)"/>
    <path id="Path_206" data-name="Path 206" class="cls-1" d="M130.5.1h6.285V30.686H130.5Z" transform="translate(142.889 0.109)"/>
    <path id="Path_207" data-name="Path 207" class="cls-1" d="M135.9,15.532h0C135.9,9.037,140.509,3.8,147,3.8c7.542,0,10.894,5.866,10.894,12.151v1.676H142.185a5.215,5.215,0,0,0,5.447,4.4,7.144,7.144,0,0,0,5.447-2.3l3.561,3.142a11.382,11.382,0,0,1-9.218,4.19C140.928,27.263,135.9,22.445,135.9,15.532Zm15.922-1.885c-.419-2.933-2.095-4.818-4.818-4.818s-4.4,1.885-4.818,4.818Z" transform="translate(148.802 4.161)"/>
  </g>
</svg>
