<svg xmlns="http://www.w3.org/2000/svg" viewBox="800 4495 320.117 150">
  <defs>
    <style>
      .cls-1 {
        opacity: 0.75;
      }

      .cls-2 {
        fill: #fff;
      }
    </style>
  </defs>
  <g id="Group_95" data-name="Group 95" class="cls-1" transform="translate(800 4495)">
    <g id="Group_93" data-name="Group 93" transform="translate(0 117.201)">
      <path id="Path_208" data-name="Path 208" class="cls-2" d="M0,54.3H8.528V65.67H19.461V54.3h8.528V84.912H19.461V73.323H8.528V84.912H0Z" transform="translate(0 -52.769)"/>
      <path id="Path_209" data-name="Path 209" class="cls-2" d="M14.6,69.664h0c0-6.778,5.466-12.464,13.12-12.464s13.12,5.466,13.12,12.245h0c0,6.778-5.466,12.464-13.12,12.464C20.066,82.127,14.6,76.442,14.6,69.664Zm17.93,0h0A5.194,5.194,0,0,0,27.5,64.2a5,5,0,0,0-5.029,5.248h0A5.135,5.135,0,0,0,27.5,74.693C30.562,74.911,32.53,72.506,32.53,69.664Z" transform="translate(17.324 -49.328)"/>
      <path id="Path_210" data-name="Path 210" class="cls-2" d="M28,73.025V57.5h8.309V70.4c0,2.624,1.312,3.936,3.28,3.936s3.5-1.312,3.5-3.936V57.5H51.4V81.115h-8.09v-3.28a8.633,8.633,0,0,1-7,3.717C31.061,81.552,28,78.273,28,73.025Z" transform="translate(33.224 -48.972)"/>
      <path id="Path_211" data-name="Path 211" class="cls-2" d="M40,78.41l3.061-5.029A15.34,15.34,0,0,0,51.152,76c1.531,0,2.187-.437,2.187-1.312h0c0-.875-1.312-1.312-3.717-1.968-4.592-1.312-8.309-2.843-8.309-7.653h0c0-5.029,3.936-7.872,9.4-7.872a19.12,19.12,0,0,1,9.84,2.843L57.493,65.29a16.073,16.073,0,0,0-7-2.187c-1.312,0-1.968.437-1.968,1.093h0c0,.875,1.312,1.312,3.936,2.187,4.592,1.312,8.309,2.843,8.309,7.434h0c0,5.248-3.936,7.872-9.621,7.872A17.172,17.172,0,0,1,40,78.41Z" transform="translate(47.464 -49.328)"/>
      <path id="Path_212" data-name="Path 212" class="cls-2" d="M50.6,69.664h0c0-7,5.029-12.464,12.026-12.464,8.09,0,12.026,5.9,12.026,12.9V71.85H58.909a4.91,4.91,0,0,0,5.029,3.936,6.894,6.894,0,0,0,5.248-2.405L73.778,77.1A12.27,12.27,0,0,1,63.5,81.908C55.848,82.127,50.6,77.1,50.6,69.664ZM66.781,67.7c-.219-2.624-1.749-4.373-4.155-4.373-2.187,0-3.717,1.749-4.155,4.373Z" transform="translate(60.041 -49.328)"/>
      <path id="Path_213" data-name="Path 213" class="cls-2" d="M62.4,78.41l3.061-5.029A15.34,15.34,0,0,0,73.552,76c1.531,0,2.187-.437,2.187-1.312h0c0-.875-1.312-1.312-3.717-1.968-4.592-1.312-8.309-2.843-8.309-7.653h0c0-5.029,3.936-7.872,9.4-7.872a19.12,19.12,0,0,1,9.84,2.843L80.111,65.29a16.073,16.073,0,0,0-7-2.187c-1.312,0-1.968.437-1.968,1.093h0c0,.875,1.312,1.312,3.936,2.187,4.592,1.312,8.309,2.843,8.309,7.434h0c0,5.248-3.936,7.872-9.621,7.872A17.409,17.409,0,0,1,62.4,78.41Z" transform="translate(74.043 -49.328)"/>
      <path id="Path_214" data-name="Path 214" class="cls-2" d="M73.8,69.073h0A4.347,4.347,0,0,1,77.955,64.7a4.152,4.152,0,0,1,4.155,4.155h0a4.152,4.152,0,0,1-4.155,4.155C75.549,73.446,73.8,71.478,73.8,69.073Z" transform="translate(87.57 -40.429)"/>
      <path id="Path_215" data-name="Path 215" class="cls-2" d="M81.843,68.031H79V62.565h2.843V61.034c0-2.624.656-4.373,1.968-5.685S86.872,53.6,89.277,53.6a14.132,14.132,0,0,1,4.81.656v5.466a6.984,6.984,0,0,0-3.061-.656c-1.531,0-2.405.875-2.405,2.624v.875h5.466v5.466H88.84V85.743H82.28V68.031Z" transform="translate(93.741 -53.6)"/>
      <path id="Path_216" data-name="Path 216" class="cls-2" d="M86.7,69.645h0A12.327,12.327,0,0,1,99.382,57.4c7.216,0,12.682,5.466,12.682,12.026h0A12.327,12.327,0,0,1,99.382,81.671C92.166,81.671,86.7,76.423,86.7,69.645Zm18.8,0h0c0-3.5-2.405-6.56-6.122-6.56a6.031,6.031,0,0,0-6.122,6.341h0c0,3.5,2.405,6.56,6.122,6.56C103.318,75.986,105.5,73.143,105.5,69.645Z" transform="translate(102.877 -49.091)"/>
      <path id="Path_217" data-name="Path 217" class="cls-2" d="M100.219,57.837h6.56v4.81c1.312-3.28,3.5-5.248,7.434-5.248v7h-.437c-4.373,0-7.216,2.624-7.216,8.309v8.746H100V57.837Z" transform="translate(118.659 -49.091)"/>
      <path id="Path_218" data-name="Path 218" class="cls-2" d="M107.7,77.935l2.843-4.373c2.624,1.749,5.248,2.843,7.434,2.843,1.968,0,2.843-.656,2.843-1.749h0c0-1.531-2.187-1.968-4.81-2.624-3.28-.875-7-2.405-7-7h0c0-4.81,3.936-7.434,8.528-7.434a17.76,17.76,0,0,1,8.746,2.624l-2.624,4.592c-2.405-1.312-4.592-2.187-6.341-2.187-1.531,0-2.405.656-2.405,1.531h0c0,1.312,2.187,1.968,4.81,2.843,3.28,1.093,7,2.624,7,7h0c0,5.248-3.936,7.653-8.965,7.653A18.4,18.4,0,0,1,107.7,77.935Z" transform="translate(127.796 -48.854)"/>
      <path id="Path_219" data-name="Path 219" class="cls-2" d="M117.9,74.455h0c0-5.248,3.936-7.653,9.4-7.653a19.409,19.409,0,0,1,5.685.875v-.219c0-2.843-1.749-4.373-5.029-4.373A15.976,15.976,0,0,0,121.4,64.4l-1.749-5.029a21.207,21.207,0,0,1,9.184-1.968q5.576,0,7.872,2.624a10.287,10.287,0,0,1,2.624,7.434V81.015h-6.341V78.391a9.151,9.151,0,0,1-7,3.061C121.617,81.671,117.9,79.047,117.9,74.455Zm15.306-1.531V71.831a11.655,11.655,0,0,0-4.155-.875c-2.843,0-4.592,1.093-4.592,3.28h0c0,1.749,1.531,2.843,3.717,2.843C131.02,77.079,133.206,75.33,133.206,72.925Z" transform="translate(139.899 -49.091)"/>
      <path id="Path_220" data-name="Path 220" class="cls-2" d="M130.5,53.7h6.56V85.624H130.5Z" transform="translate(154.85 -53.481)"/>
      <path id="Path_221" data-name="Path 221" class="cls-2" d="M135.9,69.645h0c0-6.778,4.811-12.245,11.589-12.245,7.872,0,11.37,6.122,11.37,12.682v1.749h-16.4a5.443,5.443,0,0,0,5.685,4.592,7.457,7.457,0,0,0,5.685-2.405l3.717,3.28a11.88,11.88,0,0,1-9.621,4.373A11.6,11.6,0,0,1,135.9,69.645Zm16.618-1.968c-.437-3.061-2.187-5.029-5.029-5.029s-4.592,1.968-5.029,5.029Z" transform="translate(161.257 -49.091)"/>
    </g>
    <g id="Group_94" data-name="Group 94" transform="translate(116.764)">
      <path id="Path_222" data-name="Path 222" class="cls-2" d="M53.4,0V86.589h86.589V0Zm52.041,17.274h17.274V40.233a26.69,26.69,0,0,0-4.373-5.466,31.363,31.363,0,0,0-9.621-6.56,19.242,19.242,0,0,0-3.28-1.093Zm17.274,52.041H105.441v-12.9a8.746,8.746,0,1,0-17.493,0v12.9H70.674V17.274H87.948V31.706a29.393,29.393,0,0,1,8.746-1.531,25.1,25.1,0,0,1,18.367,7.653A26.367,26.367,0,0,1,122.715,56.2Z" transform="translate(-53.4)"/>
    </g>
  </g>
</svg>
